<svg height="512" viewBox="0 0 64 64" width="512" xmlns="http://www.w3.org/2000/svg"><g id="Journey-2" data-name="Journey"><path d="m11 55.414c2.489-3.134 7-9.432 7-12.414a7 7 0 0 0 -14 0c0 2.982 4.511 9.28 7 12.414zm0-17.414a5 5 0 1 1 -5 5 5.006 5.006 0 0 1 5-5z"/><circle cx="11" cy="43" r="3"/><path d="m11 60c4.547 0 7-1.419 7-2 0-.42-1.514-1.541-5-1.886-.6.768-1.056 1.321-1.228 1.527a1 1 0 0 1 -1.536 0c-.172-.206-.627-.759-1.228-1.527-3.494.345-5.008 1.466-5.008 1.886 0 .581 2.453 2 7 2z"/><circle cx="53" cy="11" r="3"/><path d="m53 23.414c2.488-3.134 7-9.432 7-12.414a7 7 0 0 0 -14 0c0 2.982 4.512 9.28 7 12.414zm0-17.414a5 5 0 1 1 -5 5 5.006 5.006 0 0 1 5-5z"/><path d="m53 28c4.547 0 7-1.419 7-2 0-.42-1.514-1.541-5-1.886-.6.768-1.056 1.321-1.228 1.527a1 1 0 0 1 -1.536 0c-.172-.206-.627-.759-1.228-1.527-3.49.345-5 1.466-5 1.886-.008.581 2.445 2 6.992 2z"/><path d="m51 56h-29a1 1 0 0 1 0-2h29a9 9 0 0 0 0-18h-26a11 11 0 0 1 0-22h17a1 1 0 0 1 0 2h-17a9 9 0 0 0 0 18h26a11 11 0 0 1 0 22z"/></g></svg>